PathFileType	4	(X/Y/Z)	C:\Users\Biomechanik\SynologyDrive\AlexP\Athlete_03\Athlete_3_25_03_31\Static_01\marker_experimental.trc
DataRate	CameraRate	NumFrames	NumMarkers	Units	OrigDataRate	OrigDataStartFrame	OrigNumFrames
200	200	4	80	mm	200	93	37
Frame#	Time	BL			BR			GLAB			RFHD			LFHD			C7			T6			SPINMOL			SPINM2			SPINM3			T12			BELTOL			BELT2			BELT3			SACROL			SACR2			SACR3			LASI			RASI			LPSI			RPSI			LTHOL			LTH2			LTH3			LKNEL			LKNEM			LFIB			LSHAOL			LSHA2			LSHA3			LMALL			LMALM			LHEE			LTOE			LM5			RTHOL			RTH2			RTH3			RKNEL			RKNEM			RFIB			RSHAOL			RSHA2			RSHA3			RMALL			RMALM			RHEE			RTOE			RM5			STRN			XIPH			LACR			LUAOL			LUA2			LUA3			LCUBL			LCUBM			LLAOL			LLA2			LLA3			LWRR			LWRU			RACR			RUAOL			RUA2			RUA3			RCUBL			RCUBM			RLAOL			RLA2			RLA3			RWRR			RWRU			*73			LKJCWK			RKJCWK			RAJCWK			LAJCWK			RHJCWK			LHJCWK
		X1	Y1	Z1	X2	Y2	Z2	X3	Y3	Z3	X4	Y4	Z4	X5	Y5	Z5	X6	Y6	Z6	X7	Y7	Z7	X8	Y8	Z8	X9	Y9	Z9	X10	Y10	Z10	X11	Y11	Z11	X12	Y12	Z12	X13	Y13	Z13	X14	Y14	Z14	X15	Y15	Z15	X16	Y16	Z16	X17	Y17	Z17	X18	Y18	Z18	X19	Y19	Z19	X20	Y20	Z20	X21	Y21	Z21	X22	Y22	Z22	X23	Y23	Z23	X24	Y24	Z24	X25	Y25	Z25	X26	Y26	Z26	X27	Y27	Z27	X28	Y28	Z28	X29	Y29	Z29	X30	Y30	Z30	X31	Y31	Z31	X32	Y32	Z32	X33	Y33	Z33	X34	Y34	Z34	X35	Y35	Z35	X36	Y36	Z36	X37	Y37	Z37	X38	Y38	Z38	X39	Y39	Z39	X40	Y40	Z40	X41	Y41	Z41	X42	Y42	Z42	X43	Y43	Z43	X44	Y44	Z44	X45	Y45	Z45	X46	Y46	Z46	X47	Y47	Z47	X48	Y48	Z48	X49	Y49	Z49	X50	Y50	Z50	X51	Y51	Z51	X52	Y52	Z52	X53	Y53	Z53	X54	Y54	Z54	X55	Y55	Z55	X56	Y56	Z56	X57	Y57	Z57	X58	Y58	Z58	X59	Y59	Z59	X60	Y60	Z60	X61	Y61	Z61	X62	Y62	Z62	X63	Y63	Z63	X64	Y64	Z64	X65	Y65	Z65	X66	Y66	Z66	X67	Y67	Z67	X68	Y68	Z68	X69	Y69	Z69	X70	Y70	Z70	X71	Y71	Z71	X72	Y72	Z72	X73	Y73	Z73	X74	Y74	Z74	X75 	Y75 	Z75 	X76 	Y76 	Z76 	X77 	Y77 	Z77 	X78 	Y78 	Z78 	X79 	Y79 	Z79 	X80 	Y80 	Z80

94	0.465	960.7515	36.2128	-1933.5177	1063.1621	32.9323	86.6545	362.3268	1602.4294	-1189.1707	311.7969	1629.3999	-1126.769	321.9835	1629.4955	-1262.7587	136.7104	1438.9976	-1207.6481	nan	nan	nan	94.3569	1229.9641	-1239.6436	88.5384	1220.8513	-1190.2163	101.4456	1165.538	-1224.8158	117.8394	1101.9578	-1221.7411	89.8311	1080.8727	-1236.3452	89.428	1077.5818	-1185.9993	82.8827	1018.0522	-1216.0249	98.9413	958.2536	-1240.4524	99.5066	956.2847	-1189.0403	81.1446	898.8515	-1216.4281	329.9514	935.5061	-1331.9103	321.3625	927.0993	-1084.318	111.6071	975.6259	-1259.3057	111.9946	966.8793	-1174.7679	190.2264	683.357	-1401.751	141.4778	629.3871	-1368.7648	187.796	623.0841	-1387.5878	236.7857	487.4568	-1383.7417	254.8019	462.2156	-1264.5363	194.2248	425.4212	-1388.8694	160.1296	328.3794	-1404.2635	110.8054	266.9649	-1391.1124	159.7826	266.5231	-1402.3765	142.7015	81.2619	-1381.597	183.529	89.6584	-1295.7688	94.9233	67.2744	-1318.3698	309.8546	47.7551	-1348.6464	253.0837	31.1437	-1443.5963	157.6694	696.3603	-1025.6978	208.3814	638.0157	-1005.7261	165.1626	635.1398	-1030.7087	199.6544	496.4109	-1026.6748	237.9204	464.3058	-1148.1697	152.9925	432.547	-1029.5869	118.8041	346.6849	-1019.5662	148.5381	275.5044	-1004.0991	107.2397	286.2588	-1029.7039	124.8298	85.0067	-1041.7676	188.9057	95.5251	-1114.6105	90.5763	63.3654	-1115.0061	292.6662	47.6567	-1043.7727	216.44	39.4743	-964.2321	319.0251	1366.0801	-1202.8438	350.0796	1220.4924	-1204.5956	197.5182	1435.5397	-1353.6462	164.4175	1411.1627	-1492.3292	153.3093	1386.5159	-1552.9144	197.1711	1414.1384	-1549.4276	178.5091	1402.2067	-1657.0909	251.4182	1311.8597	-1655.5564	176.7961	1377.0897	-1747.8556	170.0027	1318.017	-1800.882	182.017	1366.4869	-1808.8185	195.386	1357.8093	-1913.1185	274.4485	1354.4418	-1905.4667	197.5628	1430.0042	-1062.8767	154.384	1412.0745	-940.3352	172.039	1409.149	-876.6906	125.4307	1389.3412	-886.6459	147.9519	1391.4518	-772.0079	203.9823	1295.9199	-772.6581	136.5768	1371.4116	-673.0715	153.1697	1413.4803	-606.957	135.9836	1365.7616	-610.8106	148.0235	1377.1691	-518.5668	225.9554	1352.1902	-506.3369	96.4049	1266.8722	-1217.536	245.7938	474.8362	-1324.139	218.7874	480.3584	-1087.4222	155.1956	79.7314	-1077.9397	160.8751	74.9104	-1339.077	263.0899	851.5821	-1123.9331	269.2542	857.6157	-1301.63
95	0.47	960.7559	36.2159	-1933.522	1063.1497	32.9284	86.6557	362.4507	1602.3783	-1189.1375	311.9277	1629.3364	-1126.8143	322.0894	1629.4468	-1262.6876	136.7953	1439.0145	-1207.6096	nan	nan	nan	94.3906	1229.9821	-1239.637	88.6035	1220.8646	-1190.1909	101.511	1165.5479	-1224.8024	117.8485	1101.975	-1221.7133	89.8919	1080.9033	-1236.3092	89.4772	1077.6066	-1185.983	83.0164	1018.0692	-1215.9358	98.9697	958.2608	-1240.4352	99.5566	956.2858	-1189.041	81.1945	898.842	-1216.3929	329.9854	935.4996	-1331.8966	321.2456	926.9077	-1084.5227	111.8039	975.7863	-1259.1927	112.0324	966.8839	-1174.756	190.7547	683.0002	-1401.2013	141.5085	629.4088	-1368.7511	187.8103	623.1004	-1387.5597	236.7961	487.4558	-1383.704	254.8055	462.2155	-1264.5211	194.2317	425.4233	-1388.8556	160.1198	328.3806	-1404.2637	110.8133	266.9722	-1391.1012	159.7729	266.5543	-1402.3738	142.7001	81.2794	-1381.5844	183.5344	89.6571	-1295.7601	94.9223	67.2806	-1318.3767	309.8569	47.7565	-1348.6311	253.0898	31.1459	-1443.5897	157.6886	696.3814	-1025.7017	208.4036	638.019	-1005.7248	165.19	635.1411	-1030.7043	199.6675	496.4075	-1026.6633	237.944	464.2682	-1148.175	152.9948	432.5463	-1029.5951	118.8109	346.6891	-1019.5634	148.5396	275.5084	-1004.107	107.244	286.2649	-1029.698	124.82	85.01	-1041.7634	188.8706	95.5938	-1114.6013	90.541	63.4001	-1115.0167	292.6667	47.6441	-1043.7728	216.4342	39.4618	-964.2557	319.0969	1366.0575	-1202.8004	350.1397	1220.441	-1204.5756	197.5855	1435.5403	-1353.6088	164.5076	1411.194	-1492.3064	153.3869	1386.5276	-1552.8309	196.9131	1414.1669	-1549.651	178.6112	1402.2473	-1657.0549	251.4821	1311.933	-1655.5298	176.9408	1377.1409	-1747.7994	170.1057	1318.0654	-1800.8546	182.1005	1366.5352	-1808.7837	195.444	1357.8428	-1913.0992	274.5415	1354.5033	-1905.4436	197.6566	1429.9872	-1062.8406	154.4565	1412.0391	-940.309	172.1086	1409.1401	-876.659	125.4816	1389.229	-886.5461	148.0418	1391.425	-771.9801	204.0383	1295.9373	-772.6445	136.6734	1371.3785	-673.0389	153.2061	1413.3033	-606.9674	136.0941	1365.7271	-610.774	148.1546	1377.1204	-518.5349	226.0739	1352.1283	-506.3218	96.4626	1266.8912	-1217.5039	245.8008	474.8356	-1324.1125	218.8057	480.3378	-1087.4192	155.1718	79.7676	-1077.9329	160.877	74.9186	-1339.0667	262.9206	851.4752	-1124.1312	269.1984	857.6468	-1301.820
96	0.475	960.7521	36.2271	-1933.5121	1063.1434	32.9157	86.6364	362.5801	1602.3467	-1189.1042	312.055	1629.2878	-1126.7854	322.2116	1629.4097	-1262.651	136.908	1439.03	-1207.5746	nan	nan	nan	94.4631	1229.998	-1239.6078	88.6742	1220.871	-1190.1793	101.5549	1165.5592	-1224.7899	117.8896	1101.9918	-1221.6997	89.9532	1080.8922	-1236.2859	89.5242	1077.6245	-1185.9723	82.9812	1018.0776	-1215.9634	99.0216	958.2839	-1240.4235	99.6008	956.2968	-1189.0021	81.2404	898.8647	-1216.3811	330.023	935.4963	-1331.8795	321.5089	927.0726	-1084.2435	111.3928	975.7148	-1259.2986	112.0696	966.897	-1174.7268	190.7722	683.0782	-1401.1678	141.5133	629.4211	-1368.7352	187.8126	623.1161	-1387.5685	236.7904	487.5036	-1383.901	254.8016	462.2147	-1264.5137	194.2347	425.4258	-1388.8605	160.1199	328.3932	-1404.2581	110.8109	266.9774	-1391.1055	159.7944	266.5253	-1402.3781	142.7232	81.2649	-1381.6052	183.5395	89.6547	-1295.7665	94.9269	67.277	-1318.3718	309.8528	47.7599	-1348.6345	253.0814	31.1517	-1443.5961	157.6895	696.3685	-1025.684	208.4304	638.0143	-1005.7279	165.2069	635.14	-1030.6917	199.6865	496.3987	-1026.6606	237.9503	464.2637	-1148.1763	153.0097	432.5453	-1029.5867	118.8097	346.6883	-1019.5583	148.5524	275.5166	-1004.1029	107.2488	286.2696	-1029.6858	124.8358	85.0003	-1041.78	188.9263	95.4919	-1114.5878	90.6128	63.3343	-1115.0042	292.6738	47.6479	-1043.7649	216.4414	39.467	-964.2405	319.1684	1366.0403	-1202.7866	350.1914	1220.4121	-1204.5609	197.6845	1435.5552	-1353.5669	164.5935	1411.2184	-1492.244	153.4955	1386.6085	-1552.7919	197.3037	1414.2775	-1549.3634	178.7267	1402.2867	-1657.0421	251.5814	1311.9916	-1655.524	177.0552	1377.1959	-1747.7274	170.2584	1318.1184	-1800.8198	182.1876	1366.587	-1808.765	195.4356	1357.8792	-1913.1167	274.6382	1354.5762	-1905.4243	197.7278	1429.986	-1062.8186	154.5526	1412.0276	-940.293	172.2064	1409.1145	-876.594	125.5665	1389.2203	-886.5092	148.1473	1391.4066	-771.9411	204.28	1295.9617	-772.4758	136.7764	1371.3512	-673.0092	153.4886	1413.3167	-607.0227	136.1915	1365.6989	-610.74	148.2712	1377.0703	-518.4951	226.2073	1352.0375	-506.3134	96.4685	1266.922	-1217.481	245.796	474.8591	-1324.2073	218.8184	480.3312	-1087.4185	155.2084	79.7117	-1077.9345	160.8918	74.9099	-1339.0781	263.2129	851.5678	-1123.8663	269.3224	857.6125	-1301.565
97	0.48	960.7534	36.241	-1933.5156	1063.1514	32.922	86.6385	362.6891	1602.3209	-1189.0618	312.1832	1629.2609	-1126.7134	322.3359	1629.3625	-1262.5906	137.0342	1439.0409	-1207.5229	nan	nan	nan	94.6883	1229.9291	-1239.594	88.7323	1220.891	-1190.1584	101.615	1165.5663	-1224.7843	117.9436	1102.0099	-1221.6809	90.0111	1080.9408	-1236.2596	89.5772	1077.6389	-1185.9523	83.0321	1018.08	-1215.9453	99.0337	958.2927	-1240.4044	99.6339	956.3099	-1189.0013	81.2688	898.8705	-1216.3684	330.0576	935.4969	-1331.8601	321.3832	926.903	-1084.4741	111.4318	975.7273	-1259.271	112.1206	966.9056	-1174.7169	190.5037	683.4008	-1401.3514	141.5343	629.4337	-1368.7124	187.8296	623.1146	-1387.5526	236.7734	487.5245	-1383.8698	254.7972	462.1989	-1264.5248	194.2401	425.4317	-1388.8455	160.1466	328.3888	-1404.2615	110.8051	266.9961	-1391.1149	159.8035	266.5233	-1402.3695	142.7261	81.2726	-1381.6019	183.5472	89.6539	-1295.7568	94.93	67.2842	-1318.3712	309.8639	47.7517	-1348.6249	253.0811	31.1781	-1443.6007	157.7225	696.355	-1025.6709	208.4773	638.0146	-1005.7254	165.24	635.1392	-1030.677	199.6996	496.3938	-1026.6509	237.9658	464.2838	-1148.174	153.0163	432.5466	-1029.5721	118.8192	346.6996	-1019.5536	148.5533	275.5206	-1004.099	107.2569	286.2684	-1029.6925	124.8266	85.0081	-1041.7698	188.884	95.5358	-1114.5985	90.5905	63.366	-1115.0005	292.6736	47.6384	-1043.7642	216.4442	39.4381	-964.2641	319.2366	1366.0394	-1202.7689	350.2458	1220.4152	-1204.5413	197.7632	1435.5696	-1353.5254	164.703	1411.2614	-1492.1857	153.5391	1386.5106	-1552.6735	197.0735	1414.2849	-1549.557	178.7975	1402.366	-1656.9658	251.6699	1312.0278	-1655.4927	177.1367	1377.248	-1747.7207	170.3799	1318.1857	-1800.7753	182.2949	1366.631	-1808.7103	195.513	1357.9187	-1913.0902	274.7286	1354.6334	-1905.3833	197.8137	1429.9819	-1062.7841	154.6404	1412.0081	-940.2691	172.2922	1409.1119	-876.5869	125.6798	1389.2003	-886.4581	148.2576	1391.385	-771.9041	204.3314	1295.9236	-772.4971	136.884	1371.3215	-672.9728	153.7008	1413.4874	-606.8913	136.3343	1365.6709	-610.7006	148.4095	1377.0179	-518.4502	226.3357	1351.969	-506.3101	96.5161	1266.941	-1217.4534	245.7853	474.8617	-1324.1973	218.8327	480.3388	-1087.4124	155.1815	79.7377	-1077.9349	160.8974	74.9133	-1339.0717	263.0705	851.4534	-1124.0724	269.3012	857.6262	-1301.763
